<?xml version="1.0" standalone="no"?>
<!DOCTYPE svg PUBLIC "-//W3C//DTD SVG 20010904//EN"
 "http://www.w3.org/TR/2001/REC-SVG-20010904/DTD/svg10.dtd">
<svg version="1.0" xmlns="http://www.w3.org/2000/svg"
 width="89.000000pt" height="92.000000pt" viewBox="0 0 89.000000 92.000000"
 preserveAspectRatio="xMidYMid meet">
<metadata>
Created by potrace 1.15, written by Peter Selinger 2001-2017
</metadata>
<g transform="translate(0.000000,92.000000) scale(0.100000,-0.100000)"
fill="#000000" stroke="none">
<path d="M353 908 c-46 -22 -27 -42 68 -71 50 -16 89 -30 87 -32 -2 -3 -41 2
-87 11 -77 14 -104 14 -88 -3 4 -3 37 -12 74 -19 l68 -12 -72 -1 c-68 -1 -96
-13 -55 -24 16 -4 16 -5 0 -6 -14 -1 -18 -10 -18 -40 0 -33 4 -40 23 -44 l22
-4 -23 -2 -23 -1 1 -222 c1 -217 2 -224 23 -241 l22 -19 -23 5 c-21 5 -23 2
-20 -31 l3 -37 88 -14 c51 -9 86 -19 84 -25 -6 -19 -46 -18 -102 3 -62 23 -75
25 -75 12 0 -5 29 -20 64 -32 40 -14 60 -26 53 -31 -20 -13 -62 -9 -83 7 -24
18 -34 19 -34 2 0 -18 43 -37 82 -37 30 0 353 176 390 213 16 15 18 41 18 247
0 206 -2 232 -18 248 -9 9 -94 61 -188 115 -177 100 -209 110 -261 85z"/>
</g>
</svg>
